<?xml version="1.0" encoding="UTF-8" standalone="no"?>
<!-- Created with Inkscape (http://www.inkscape.org/) -->
<svg xmlns:rdf="http://www.w3.org/1999/02/22-rdf-syntax-ns#" xmlns="http://www.w3.org/2000/svg" xmlns:i="http://ns.adobe.com/AdobeIllustrator/10.0/" xmlns:cc="http://web.resource.org/cc/" xmlns:xlink="http://www.w3.org/1999/xlink" xmlns:a="http://ns.adobe.com/AdobeSVGViewerExtensions/3.0/" xmlns:dc="http://purl.org/dc/elements/1.1/" xmlns:svg="http://www.w3.org/2000/svg" xmlns:inkscape="http://www.inkscape.org/namespaces/inkscape" xmlns:sodipodi="http://sodipodi.sourceforge.net/DTD/sodipodi-0.dtd" xmlns:ns1="http://sozi.baierouge.fr" id="svg2" version="1.1" viewBox="0 0 499.99999 500.00001" inkscape:version="0.91 r13725">
  <title id="title3873">Hotel has concierge service</title>
  <g id="Layer_1" transform="translate(22.606 22.606)">
    <path id="path13" style="fill-rule:evenodd;stroke:#000000;stroke-width:6.7782;fill:#ffffff" d="m227.39-19.217h-227.09c-10.781 0-19.521 8.7401-19.521 19.521v454.18c0 10.78 8.7401 19.521 19.521 19.521h454.18c10.781 0 19.521-8.7411 19.521-19.521v-454.18c0-10.781-8.7401-19.521-19.521-19.521h-227.09z"/>
    <g id="g3861" transform="matrix(1.0596 0 0 1.0596 -12.523 -.65008)">
      <path id="path109" style="fill-rule:evenodd;fill:#000000" d="m178.46 209.09h-87.979c-0.90665-5.8076 0.12363-11.574 2.9271-17.298 2.7623-5.8076 7.2977-11.533 13.77-17.34l-11.793-37.08c-5.5245 3.9823-9.5632 9.7486-12.285 17.298-2.6798 7.5504-2.9271 18.502-3.9162 27.711-1.1127 9.1262-1.9369 17.92-2.4738 26.715h-20.119c-0.45333-14.644 0.08134-27.669 1.4424-39.575 1.36-11.948 3.503-21.862 6.8856-31.652 3.2145-10.038 7.0493-20.286 13.274-27.213 6.2251-6.8866 15.419-10.869 24.076-13.855 8.7412-3.0702 18.14-4.2318 27.54-4.4389 9.2335-0.37307 19.005-0.29065 27.538 2.4889 8.328 2.6549 15.914 7.5916 22.593 13.856 6.6795 6.2218 12.244 13.855 17.191 23.23 5.5668-11.863 10.926-19.29 16.244-23.23 5.2783-3.8587 12.78-3.0702 15.214 0.45658 2.2677 3.4834 2.4748 10.454-1.4424 20.285-4.1233 9.7899-15.543 32.026-22.634 38.081-7.0916 5.7652-13.068 1.3686-19.664-2.9455-6.7608-4.479-13.276-12.071-20.16-23.271-3.6277 12.487-5.7707 21.405-6.8845 27.214-1.1138 5.6416-0.94895 8.0058 0.49453 6.9278 6.1427 5.5581 10.843 11.16 14.266 16.801 3.2937 5.5972 5.3152 11.156 5.8922 16.84z"/>
      <path id="path111" style="fill-rule:evenodd;fill:#000000" d="m130.96 27.056c16.134 0 29.229 13.176 29.229 29.412s-13.094 29.412-29.229 29.412-29.23-13.176-29.23-29.412 13.095-29.412 29.23-29.412"/>
      <path id="path113" style="fill-rule:evenodd;fill:#000000" d="m247.8 209.09h-25.108c8.5752-28.623 17.314-51.439 26.549-69.733 9.2346-18.294 15.833-31.694 28.529-39.077 12.697-7.4267 32.073-5.3933 46.668-5.4345 14.429-0.20714 28.86-1.2862 39.33 4.4378 10.267 5.6828 17.068 14.229 22.139 29.661 4.864 15.473 6.6383 45.591 7.3812 62.35 0.65939 16.593 0.0401 28.955-2.9672 36.589-3.1342 7.3421-10.556 8.5448-15.254 7.9223-4.7014-0.74722-8.9071-4.6048-12.781-11.906 0.7006 49.779 0.7006 87.902 0 116.78-0.74289 28.374 0.32861 44.843-4.4096 53.886-4.9486 8.8778-19.873 12.032-24.572 0-4.7827-12.279-3.3793-47.664-3.9162-72.223-0.61709-24.64-0.41212-48.992 0.45332-74.172h-10.306c0.24727 45.133 0.0835 79.316-0.49346 104.33-0.57696 24.807 1.7309 36.504-2.9282 44.055-4.9486 7.3833-20.407 11.283-25.561 0-5.1135-11.699-2.3512-30.739-4.9042-68.78-2.7221-38.289-6.1839-90.143-10.843-158.26-6.7619 5.9735-12.161 12.072-16.697 18.792-4.5799 6.6372-7.9603 13.399-10.309 20.784z"/>
      <path id="path115" style="fill-rule:evenodd;fill:#000000" d="m322.67 27.056c16.134 0 29.23 13.176 29.23 29.412s-13.095 29.412-29.23 29.412c-16.134 0-29.23-13.176-29.23-29.412s13.095-29.412 29.23-29.412"/>
      <path id="path117" style="fill-rule:evenodd;fill:#000000" d="m24.6 221.95h242.82v17.797h-242.82v-17.797z"/>
      <path id="path119" style="fill-rule:evenodd;fill:#000000" d="m398.19 221.95h37.97v17.797h-37.97v-17.797z"/>
      <path id="path121" style="fill-rule:evenodd;fill:#000000" d="m16.933 285.3 26.013-10.5c10.471 9.3333 18.347 12.777 24.242 10.496 5.813-2.3653 9.2335-10.454 10.43-24.434l25.973-10.454 48.482 122.04-25.972 10.454c-10.512-9.4179-18.428-12.735-24.241-10.454-5.8965 2.3642-9.1945 10.328-10.39 24.392l-26.013 10.46-48.523-122z"/>
      <path id="path123" style="fill-rule:evenodd;fill:#ffffff" d="m22.786 287.79 19.708-7.8822c10.924 8.6294 19.704 11.616 26.344 8.9602 6.596-2.7796 11.048-10.868 13.357-24.931l18.799-7.5926 45.265 113.83-19.253 7.7575c-11.584-9.625-20.406-12.901-27.127-10.289-6.6784 2.6148-10.761 11.367-12.575 26.259l-19.252 7.7575-45.265-113.87z"/>
      <path id="path125" style="fill-rule:evenodd;fill:#000000" d="m107.14 265.63 27.169 6.6784c3.0507 13.772 7.6263 21.074 13.729 22.692 6.0592 1.4511 13.521-3.1527 22.55-13.813l27.168 6.6784-30.919 127.68-27.21-6.6795c-3.1754-13.812-7.5851-21.115-13.688-22.69-6.185-1.5357-13.44 3.0692-22.55 13.812l-27.214-6.67 30.964-127.69z"/>
      <path id="path127" style="fill-rule:evenodd;fill:#ffffff" d="m110.43 271.11 20.571 5.0614c3.9997 13.358 9.2769 20.907 16.285 22.65 6.9257 1.6593 15.295-2.489 25.272-12.445l19.704 4.812-28.858 119.14-20.16-4.9367c-3.8348-14.603-9.1511-22.484-16.118-24.269-7.0092-1.7406-15.378 2.9466-25.437 14.063l-20.119-4.9356 28.859-119.14z"/>
    </g>
  </g>
  <metadata>
    <rdf:RDF>
      <cc:Work>
        <dc:format>image/svg+xml</dc:format>
        <dc:type rdf:resource="http://purl.org/dc/dcmitype/StillImage"/>
        <cc:license rdf:resource="http://creativecommons.org/licenses/publicdomain/"/>
        <dc:publisher>
          <cc:Agent rdf:about="http://openclipart.org/">
            <dc:title>Openclipart</dc:title>
          </cc:Agent>
        </dc:publisher>
        <dc:title>Hotel Icon Has Concierge</dc:title>
        <dc:date>2010-04-23T19:42:14</dc:date>
        <dc:description>Hotel Icons. Originally done for a request, this set has been re-mixed to simple black and white versions. </dc:description>
        <dc:source>https://openclipart.org/detail/50389/hotel-icon-has-concierge-by-gerald_g</dc:source>
        <dc:creator>
          <cc:Agent>
            <dc:title>Gerald_G</dc:title>
          </cc:Agent>
        </dc:creator>
        <dc:subject>
          <rdf:Bag>
            <rdf:li>concierge</rdf:li>
            <rdf:li>hotel</rdf:li>
            <rdf:li>icon</rdf:li>
            <rdf:li>request+completed</rdf:li>
            <rdf:li>services</rdf:li>
            <rdf:li>source+wiki</rdf:li>
          </rdf:Bag>
        </dc:subject>
      </cc:Work>
      <cc:License rdf:about="http://creativecommons.org/licenses/publicdomain/">
        <cc:permits rdf:resource="http://creativecommons.org/ns#Reproduction"/>
        <cc:permits rdf:resource="http://creativecommons.org/ns#Distribution"/>
        <cc:permits rdf:resource="http://creativecommons.org/ns#DerivativeWorks"/>
      </cc:License>
    </rdf:RDF>
  </metadata>
</svg>
